<svg width="25" height="25" viewBox="0 0 25 25" fill="none" xmlns="http://www.w3.org/2000/svg">
<path d="M0.443388 0.708221L0.56951 0.56951C1.2842 -0.145167 2.41681 -0.187211 3.18066 0.443388L3.31937 0.56951L12.5 9.74999L21.6806 0.56951C22.44 -0.189833 23.6711 -0.189833 24.4304 0.56951C25.1899 1.32886 25.1899 2.56002 24.4304 3.31937L15.25 12.5L24.4304 21.6806C25.1452 22.3953 25.1872 23.5279 24.5565 24.2917L24.4304 24.4304C23.7158 25.1452 22.5832 25.1872 21.8193 24.5565L21.6806 24.4304L12.5 15.25L3.31937 24.4304C2.56002 25.1899 1.32887 25.1899 0.56951 24.4304C-0.189833 23.6711 -0.189833 22.44 0.56951 21.6806L9.74999 12.5L0.56951 3.31937C-0.145167 2.60469 -0.187211 1.47208 0.443388 0.708221Z" fill="#102F5E"/>
</svg>
