<svg width="18" height="19" viewBox="0 0 18 19" fill="none" xmlns="http://www.w3.org/2000/svg">
<path d="M0 17.7447V8.79678C0 8.09864 0.297725 7.43203 0.821697 6.95698L8.12513 0.335435C8.61844 -0.111812 9.38156 -0.111812 9.87487 0.335435L17.1783 6.95698C17.7023 7.43203 18 8.09864 18 8.79678V17.7447C18 18.438 17.4244 19 16.7143 19H12.8571C12.1471 19 11.5714 18.438 11.5714 17.7447V12.7233C11.5714 12.03 10.9958 11.468 10.2857 11.468H7.71429C7.00421 11.468 6.42857 12.03 6.42857 12.7233V17.7447C6.42857 18.438 5.85294 19 5.14286 19H1.28571C0.575634 19 0 18.438 0 17.7447Z" fill="white"/>
</svg>