<svg width="27" height="29" viewBox="0 0 27 29" fill="none" xmlns="http://www.w3.org/2000/svg">
<path d="M0 27.084V13.4267C0 12.3611 0.446587 11.3436 1.23255 10.6185L12.1877 0.511979C12.9277 -0.17066 14.0723 -0.17066 14.8123 0.511979L25.7675 10.6185C26.5534 11.3436 27 12.3611 27 13.4267V27.084C27 28.1422 26.1366 29 25.0714 29H19.2857C18.2206 29 17.3571 28.1422 17.3571 27.084V19.4198C17.3571 18.3616 16.4937 17.5037 15.4286 17.5037H11.5714C10.5063 17.5037 9.64286 18.3616 9.64286 19.4198V27.084C9.64286 28.1422 8.77941 29 7.71429 29H1.92857C0.863451 29 0 28.1422 0 27.084Z" fill="#323130"/>
</svg>