<svg width="22" height="30" viewBox="0 0 22 30" fill="none" xmlns="http://www.w3.org/2000/svg">
<path d="M1.69792 26.479H20.3021C21.0672 26.479 21.6875 27.0993 21.6875 27.8644C21.6875 28.5913 21.1277 29.1875 20.4157 29.2452L20.3021 29.2498H1.69792C0.932771 29.2498 0.3125 28.6296 0.3125 27.8644C0.3125 27.1375 0.872287 26.5414 1.58431 26.4836L1.69792 26.479H20.3021H1.69792ZM10.6885 0.952345L10.8021 0.947754C11.529 0.947754 12.1251 1.50755 12.1829 2.21954L12.1875 2.33317V19.2218L15.982 15.4279C16.5231 14.8869 17.4003 14.8869 17.9413 15.4279C18.4824 15.969 18.4824 16.8462 17.9413 17.3872L11.7836 23.5449C11.2426 24.086 10.3654 24.086 9.82438 23.5449L3.66663 17.3872C3.12561 16.8462 3.12561 15.969 3.66663 15.4279C4.20766 14.8869 5.08483 14.8869 5.62593 15.4279L9.41667 19.2186V2.33317C9.41667 1.60629 9.97645 1.01014 10.6885 0.952345L10.8021 0.947754L10.6885 0.952345Z" fill="#1F51A2"/>
</svg>
