<svg width="19" height="19" viewBox="0 0 19 19" fill="none" xmlns="http://www.w3.org/2000/svg">
<path d="M17.8125 5.9375V15.4375C17.8125 17.405 16.2175 19 14.25 19H4.75C2.78249 19 1.1875 17.405 1.1875 15.4375V5.9375H17.8125ZM11.2812 8.3125H7.71875C7.39083 8.3125 7.125 8.57833 7.125 8.90625C7.125 9.23417 7.39083 9.5 7.71875 9.5H11.2812C11.6092 9.5 11.875 9.23417 11.875 8.90625C11.875 8.57833 11.6092 8.3125 11.2812 8.3125ZM17.8125 0C18.4683 0 19 0.531662 19 1.1875V3.5625C19 4.21834 18.4683 4.75 17.8125 4.75H1.1875C0.531662 4.75 0 4.21834 0 3.5625V1.1875C0 0.531662 0.531662 0 1.1875 0H17.8125Z" fill="white"/>
</svg>