<svg width="19" height="17" viewBox="0 0 19 17" fill="none" xmlns="http://www.w3.org/2000/svg">
<path d="M2.59998 3.325C2.59998 3.00744 2.85741 2.75 3.17498 2.75H4.32239C4.63995 2.75 4.89739 3.00744 4.89739 3.325V10.225C4.89739 10.5425 4.63995 10.8 4.32239 10.8H3.17498C2.85741 10.8 2.59998 10.5425 2.59998 10.225V3.325Z" fill="white"/>
<path d="M6.62499 2.75C6.30743 2.75 6.04999 3.00744 6.04999 3.325V10.225C6.04999 10.5425 6.30743 10.8 6.62499 10.8H15.825C16.1425 10.8 16.4 10.5425 16.4 10.225V3.325C16.4 3.00744 16.1425 2.75 15.825 2.75H6.62499Z" fill="white"/>
<path d="M0.256348 2.1752C0.256348 1.2225 1.02865 0.450195 1.98135 0.450195H16.8615C17.8142 0.450195 18.5865 1.2225 18.5865 2.1752V11.3752C18.5865 12.3279 17.8142 13.1002 16.8615 13.1002H11.8V15.417H13.5236C13.8411 15.417 14.0986 15.6745 14.0986 15.992C14.0986 16.3096 13.8411 16.567 13.5236 16.567H5.4736C5.15604 16.567 4.8986 16.3096 4.8986 15.992C4.8986 15.6745 5.15604 15.417 5.4736 15.417H7.2V13.1002H1.98135C1.02865 13.1002 0.256348 12.3279 0.256348 11.3752V2.1752ZM8.35 13.1002V15.417H10.65V13.1002H8.35ZM1.98135 1.6002C1.66378 1.6002 1.40635 1.85763 1.40635 2.1752V11.3752C1.40635 11.6927 1.66378 11.9502 1.98135 11.9502H16.8615C17.179 11.9502 17.4365 11.6927 17.4365 11.3752V2.1752C17.4365 1.85763 17.179 1.6002 16.8615 1.6002H1.98135Z" fill="white"/>
</svg>