<svg width="36" height="32" viewBox="0 0 36 32" fill="none" xmlns="http://www.w3.org/2000/svg">
<path d="M4.79999 6.1C4.79999 5.49249 5.29248 5 5.89999 5H8.09504C8.70255 5 9.19504 5.49249 9.19504 6.1V19.3C9.19504 19.9074 8.70255 20.4 8.09504 20.4H5.89999C5.29248 20.4 4.79999 19.9074 4.79999 19.3V6.1Z" fill="#323130"/>
<path d="M12.5 5C11.8925 5 11.4 5.49249 11.4 6.1V19.3C11.4 19.9074 11.8925 20.4 12.5 20.4H30.1C30.7074 20.4 31.2 19.9074 31.2 19.3V6.1C31.2 5.49249 30.7074 5 30.1 5H12.5Z" fill="#323130"/>
<path d="M0.316498 3.89998C0.316498 2.07743 1.79395 0.599976 3.6165 0.599976H32.0829C33.9054 0.599976 35.3829 2.07743 35.3829 3.89998V21.5C35.3829 23.3225 33.9054 24.8 32.0829 24.8H22.4V29.2321H25.6974C26.3048 29.2321 26.7974 29.7247 26.7974 30.3321C26.7974 30.9397 26.3048 31.4321 25.6974 31.4321H10.2973C9.68982 31.4321 9.19733 30.9397 9.19733 30.3321C9.19733 29.7247 9.68982 29.2321 10.2973 29.2321H13.6V24.8H3.6165C1.79395 24.8 0.316498 23.3225 0.316498 21.5V3.89998ZM15.8 24.8V29.2321H20.2V24.8H15.8ZM3.6165 2.79998C3.00897 2.79998 2.5165 3.29247 2.5165 3.89998V21.5C2.5165 22.1074 3.00897 22.6 3.6165 22.6H32.0829C32.6903 22.6 33.1829 22.1074 33.1829 21.5V3.89998C33.1829 3.29247 32.6903 2.79998 32.0829 2.79998H3.6165Z" fill="#323130"/>
</svg>