<svg width="18" height="18" viewBox="0 0 18 18" fill="none" xmlns="http://www.w3.org/2000/svg">
<path d="M-0.0755626 1.12856C-0.0110378 -0.0651507 0.975705 -1 2.17116 -1H3.32894C4.52439 -1 5.51114 -0.0651532 5.57566 1.12856L6.4135 16.6286C6.48315 17.917 5.45714 19 4.16678 19H1.33332C0.0429599 19 -0.983048 17.917 -0.9134 16.6286L-0.0755626 1.12856Z" fill="white"/>
<path fill-rule="evenodd" clip-rule="evenodd" d="M6.51184 19C7.11136 18.3751 7.46261 17.5125 7.41191 16.5746L6.85566 6.28385L11.5218 2.42222C11.7456 2.23698 12.0563 2.19768 12.3192 2.32137C12.5821 2.44506 12.75 2.70947 12.75 3.00002V7.24036L17.7306 2.45898C17.9474 2.25083 18.2675 2.19223 18.544 2.31007C18.8205 2.42792 19 2.69946 19 3.00002V16.75C19 17.9927 17.9926 19 16.75 19H6.51184ZM10 17.5V13C10 12.4477 10.4477 12 11 12H14C14.5523 12 15 12.4477 15 13V17.5H10Z" fill="white"/>
</svg>