<svg width="34" height="34" viewBox="0 0 34 34" fill="none" xmlns="http://www.w3.org/2000/svg">
<path d="M2.25221 4.20891C2.35706 2.26913 3.96051 0.75 5.90313 0.75H7.78446C9.72715 0.75 11.3305 2.26913 11.4355 4.20891L12.7969 29.3965C12.91 31.4901 11.2428 33.25 9.14605 33.25H4.54164C2.44481 33.25 0.777543 31.4901 0.890725 29.3965L2.25221 4.20891Z" fill="#323130"/>
<path fill-rule="evenodd" clip-rule="evenodd" d="M12.9567 33.25C13.931 32.2345 14.5017 30.8328 14.4194 29.3087L13.5155 12.5862L21.0979 6.31111C21.4616 6.01009 21.9665 5.94623 22.3937 6.14722C22.8209 6.34822 23.0938 6.77789 23.0938 7.25V14.1406L31.1872 6.37084C31.5395 6.0326 32.0597 5.93737 32.509 6.12886C32.9583 6.32037 33.25 6.76162 33.25 7.25V29.5937C33.25 31.6131 31.613 33.25 29.5938 33.25H12.9567ZM18.625 30.8125V23.5C18.625 22.6025 19.3525 21.875 20.25 21.875H25.125C26.0225 21.875 26.75 22.6025 26.75 23.5V30.8125H18.625Z" fill="#323130"/>
</svg>