<svg width="46" height="46" viewBox="0 0 46 46" fill="none" xmlns="http://www.w3.org/2000/svg">
<path d="M23 0.5C35.4268 0.5 45.5 10.5755 45.5 23C45.5 35.4245 35.4268 45.5 23 45.5C10.5733 45.5 0.5 35.4245 0.5 23C0.5 10.5755 10.5733 0.5 23 0.5ZM23.004 29.7583C21.7632 29.7583 20.757 30.7643 20.757 32.0054C20.757 33.2463 21.7632 34.2523 23.004 34.2523C24.2449 34.2523 25.2511 33.2463 25.2511 32.0054C25.2511 30.7643 24.2449 29.7583 23.004 29.7583ZM22.9991 11.75C21.8453 11.7504 20.8947 12.6194 20.7651 13.7384L20.75 14.0008L20.754 25.2527L20.7694 25.5153C20.8996 26.6342 21.8509 27.5025 23.0049 27.502C24.1588 27.5016 25.1094 26.6326 25.239 25.5135L25.254 25.2511L25.25 13.9992L25.2347 13.7368C25.1044 12.6178 24.1531 11.7496 22.9991 11.75Z" fill="#E84553"/>
</svg>
