<svg width="34" height="28" viewBox="0 0 34 28" fill="none" xmlns="http://www.w3.org/2000/svg">
<path d="M17 1.25688V2.33325L19.9089 2.33328C20.5409 2.33328 21.0635 2.80248 21.1472 3.4118L21.1589 3.58122L21.17 10.6666H18.67L18.6609 4.83328L17 4.83325L17.0009 12.3416L18.67 12.3399L18.6717 12.3332H21.1734L21.1717 12.3399H29.4034L26.5327 9.46702C26.089 9.02317 26.0487 8.32872 26.4119 7.83942L26.533 7.69925C26.9769 7.25555 27.6712 7.21532 28.1605 7.5785L28.3007 7.69955L33.295 12.6956C33.7384 13.1391 33.779 13.8327 33.4167 14.3221L33.2959 14.4622L28.3015 19.4679C27.814 19.9567 27.0225 19.9576 26.5339 19.4699C26.0895 19.0267 26.0484 18.3322 26.4109 17.8426L26.5319 17.7022L29.3867 14.8399L17.0009 14.8416L17 22.3349L18.6899 22.3357L18.6784 16.4999H21.18L21.192 23.5836C21.193 24.2172 20.7225 24.7412 20.1117 24.8242L19.942 24.8357L17 24.8349V26.0832C17 26.8606 16.298 27.4494 15.5327 27.3142L1.36596 24.8121C0.768724 24.7066 0.333374 24.1876 0.333374 23.5811V3.58328C0.333374 2.9711 0.776724 2.449 1.38082 2.3498L15.5475 0.0234168C16.3085 -0.101567 17 0.485667 17 1.25688ZM11.1703 13.1666C10.2478 13.1666 9.50004 13.9144 9.50004 14.8369C9.50004 15.7592 10.2478 16.5071 11.1703 16.5071C12.0927 16.5071 12.8405 15.7592 12.8405 14.8369C12.8405 13.9144 12.0927 13.1666 11.1703 13.1666Z" fill="white"/>
</svg>
